<svg xmlns="http://www.w3.org/2000/svg" viewBox="0 0 64 64">
  <circle cx="32" cy="32" r="30" fill="#0d2b1a" stroke="#f0c040" stroke-width="2"/>
  <g fill="#f0c040">
    <rect x="29" y="2" width="6" height="10" rx="1"/>
    <rect x="29" y="2" width="6" height="10" rx="1" transform="rotate(45 32 32)"/>
    <rect x="29" y="2" width="6" height="10" rx="1" transform="rotate(90 32 32)"/>
    <rect x="29" y="2" width="6" height="10" rx="1" transform="rotate(135 32 32)"/>
    <rect x="29" y="2" width="6" height="10" rx="1" transform="rotate(180 32 32)"/>
    <rect x="29" y="2" width="6" height="10" rx="1" transform="rotate(225 32 32)"/>
    <rect x="29" y="2" width="6" height="10" rx="1" transform="rotate(270 32 32)"/>
    <rect x="29" y="2" width="6" height="10" rx="1" transform="rotate(315 32 32)"/>
  </g>
  <circle cx="32" cy="32" r="14" fill="#f0c040"/>
  <circle cx="32" cy="32" r="11" fill="#0d2b1a"/>
  <text x="32" y="38" text-anchor="middle" font-family="Georgia, serif" font-weight="900" font-size="14" fill="#f0c040">$</text>
</svg>
